<svg data-v-423bf9ae="" xmlns="http://www.w3.org/2000/svg" viewBox="0 0 386.04561833444046 60" class="font"><!----><!----><!----><g data-v-423bf9ae="" id="edd01a26-9dc5-490f-a442-a3d3ffef7b14" fill="white" transform="matrix(5.946481575088099,0,0,5.946481575088099,-3.7462893438003846,-3.2705641623256554)"><path d="M7.84 10.50L7.84 7.90L7.14 7.76L6.62 9.73L2.30 9.73L7.63 1.41L7.63 0.70L0.80 0.70L0.78 3.35L1.48 3.49L2.02 1.47L5.99 1.47L0.63 9.81L0.63 10.50ZM13.02 1.19L13.02 0.70L9.10 0.70L8.96 1.33L10.29 1.60L10.29 7.24C10.29 9.66 11.65 10.64 14.28 10.64C17.23 10.64 17.68 8.57 17.68 6.93L17.68 1.60L18.87 1.19L18.87 0.70L15.51 0.70L15.37 1.33L16.70 1.60L16.73 6.64C16.73 8.06 16.86 9.87 14.34 9.87C12.64 9.87 11.69 9.00 11.69 7.25L11.69 1.60ZM24.21 10.50L27.36 1.58L28.45 1.19L28.45 0.70L25.41 0.70L25.27 1.33L26.47 1.54L23.97 8.67L21.20 1.50L22.25 1.19L22.25 0.70L18.87 0.70L18.73 1.33L19.81 1.60L23.24 10.50ZM29.61 1.47L31.88 1.47L31.88 9.60L30.55 10.01L30.55 10.50L34.47 10.50L34.61 9.87L33.28 9.60L33.28 1.47L35.50 1.47L35.97 3.49L36.67 3.35L36.67 0.70L28.45 0.70L28.45 3.35L29.15 3.49ZM43.85 9.73L40.17 9.73L40.17 5.80L42.53 5.87L43.01 6.79L43.40 6.65L43.40 4.17L42.91 4.03L42.53 4.97L40.17 5.03L40.17 1.47L43.58 1.47L44.03 3.14L44.73 3.00L44.73 0.70L37.58 0.70L37.44 1.33L38.77 1.60L38.77 9.60L37.44 10.01L37.44 10.50L45.02 10.50L45.02 8.26L44.30 8.11ZM53.38 3.63L54.08 3.49L54.08 1.12C53.23 0.73 52.36 0.55 51.51 0.55C48.75 0.55 46.28 2.45 46.28 5.61C46.28 8.90 48.51 10.63 51.06 10.63C52.44 10.63 53.41 10.22 54.21 9.83L54.21 7.46L53.49 7.32L52.99 9.46C52.56 9.67 52.11 9.84 51.39 9.84C49.45 9.84 47.75 8.78 47.75 5.61C47.75 2.69 49.46 1.32 51.27 1.32C51.83 1.32 52.46 1.37 52.91 1.65ZM64.22 9.60L64.22 1.60L65.55 1.19L65.55 0.70L61.63 0.70L61.49 1.33L62.82 1.60L62.82 5.12L58.06 5.12L58.06 1.60L59.39 1.19L59.39 0.70L55.47 0.70L55.33 1.33L56.66 1.60L56.66 9.60L55.33 10.01L55.33 10.50L59.25 10.50L59.39 9.87L58.06 9.60L58.06 5.89L62.82 5.89L62.82 9.60L61.49 10.01L61.49 10.50L65.41 10.50L65.55 9.87Z"></path></g><!----><!----></svg>